<svg width="254" height="133" viewBox="0 0 254 133" fill="none" xmlns="http://www.w3.org/2000/svg">
<g filter="url(#filter0_dddd_0_825)">
<path d="M40.247 2.00335C40.8645 2 41.4761 2 42.0951 2H211.914C212.52 2 213.137 1.99983 213.743 2.00318C214.163 2.00578 214.592 2.01285 215.015 2.01982C215.11 2.02139 215.205 2.02295 215.3 2.02446C216.431 2.0369 217.56 2.13585 218.676 2.32043C219.796 2.50957 220.882 2.86354 221.897 3.37065C223.927 4.40536 225.579 6.04553 226.621 8.06049C227.131 9.06439 227.483 10.1393 227.666 11.2483C227.855 12.3569 227.959 13.4777 227.98 14.6017C227.986 15.1154 227.986 15.6306 227.986 16.1444C228 16.7512 228 17.3596 228 17.9731V53.0285C228 53.6469 228 54.2521 227.986 54.8607C227.986 55.3807 227.986 55.8846 227.98 56.4048C227.959 57.5287 227.855 58.6496 227.666 59.758C227.483 60.8678 227.131 61.9434 226.621 62.9477C226.104 63.9473 225.43 64.8598 224.627 65.6517C223.829 66.4504 222.907 67.117 221.897 67.626C220.882 68.1345 219.796 68.4905 218.676 68.6826C217.559 68.8657 216.431 68.9647 215.3 68.9787C214.785 68.9901 214.258 68.9967 213.743 68.9967C213.137 69 212.52 69 211.913 69H42.0951C41.4761 69 40.8645 69 40.2472 68.9967C39.7303 68.9967 39.2175 68.9901 38.6959 68.9787C37.5624 68.9639 36.4317 68.8649 35.3132 68.6826C34.1963 68.4919 33.1146 68.1357 32.1043 67.626C31.0929 67.1173 30.1704 66.4507 29.3721 65.6517C28.5663 64.8629 27.8946 63.9497 27.3832 62.9477C26.8696 61.9441 26.5138 60.8684 26.3282 59.758C26.1402 58.6498 26.0391 57.5288 26.0257 56.405C26.0149 56.0492 26.0107 55.7011 26.0065 55.3503C26.0046 55.188 26.0026 55.0251 26 54.8607V16.1444C26.0026 15.98 26.0046 15.8155 26.0066 15.6509C26.0108 15.3011 26.015 14.9511 26.0257 14.6019C26.0391 13.478 26.1402 12.3569 26.3282 11.2485C26.5143 10.1387 26.8701 9.0636 27.3832 8.06032C27.8949 7.05513 28.5664 6.13832 29.3721 5.34514C30.1735 4.54967 31.0954 3.8835 32.1043 3.37082C33.1146 2.86246 34.1964 2.5084 35.3132 2.3206C36.4315 2.1368 37.5624 2.03785 38.6959 2.02462C38.8027 2.02294 38.9092 2.0212 39.0155 2.01946C39.4278 2.0127 39.8361 2.00602 40.247 2.00335Z" fill="black"/>
</g>
<path d="M39.7782 66.9968C39.264 66.9968 38.7623 66.9903 38.2521 66.9789C37.1953 66.9653 36.141 66.8742 35.0978 66.7062C34.1251 66.5401 33.1828 66.231 32.302 65.7893C31.4292 65.3514 30.6332 64.7771 29.9444 64.0884C29.2455 63.408 28.6637 62.6187 28.222 61.7519C27.7754 60.8796 27.4664 59.9445 27.3056 58.9793C27.1321 57.9421 27.0382 56.8934 27.0248 55.8422C27.014 55.4893 27 54.3146 27 54.3146V15.6645C27 15.6645 27.0149 14.5077 27.0248 14.1677C27.0377 13.1182 27.131 12.0711 27.3041 11.0356C27.4652 10.0678 27.7745 9.12999 28.2213 8.25475C28.6614 7.38858 29.2399 6.5987 29.9344 5.91574C30.6282 5.22629 31.4268 4.64902 32.3011 4.20498C33.1799 3.76478 34.1205 3.45802 35.0912 3.29497C36.1379 3.12535 37.1959 3.03369 38.2563 3.02075L39.7791 3H213.212L214.753 3.02125C215.804 3.03363 216.852 3.12457 217.89 3.2933C218.87 3.45843 219.821 3.76739 220.709 4.21C222.461 5.10484 223.886 6.52057 224.785 8.25877C225.225 9.12801 225.529 10.0582 225.688 11.0177C225.863 12.0617 225.961 13.117 225.981 14.1751C225.987 14.6489 225.987 15.1579 225.987 15.6645C226 16.2919 226 16.889 226 17.4912V52.5071C226 53.115 226 53.7081 225.987 54.3061C225.987 54.8502 225.987 55.3486 225.98 55.8616C225.96 56.9009 225.864 57.9373 225.691 58.9627C225.534 59.9349 225.226 60.8773 224.78 61.7568C224.335 62.6141 223.757 63.3965 223.066 64.0752C222.377 64.7675 221.579 65.3452 220.704 65.786C219.818 66.231 218.869 66.5411 217.89 66.7059C216.846 66.8748 215.792 66.966 214.735 66.9788C214.23 66.9905 213.725 66.9964 213.221 66.9967L211.391 67L39.7782 66.9968Z" fill="black"/>
<path d="M67.9804 35.888C67.9986 34.4888 68.3729 33.117 69.0684 31.9C69.764 30.6831 70.7582 29.6606 71.9586 28.9277C71.196 27.8462 70.19 26.9562 69.0204 26.3283C67.8508 25.7004 66.5499 25.352 65.221 25.3107C62.386 25.0151 59.6379 26.9951 58.1931 26.9951C56.7207 26.9951 54.4966 25.34 52.1016 25.389C50.5524 25.4386 49.0425 25.8859 47.7192 26.6873C46.3959 27.4887 45.3041 28.6168 44.5504 29.9617C41.2855 35.575 43.7208 43.8244 46.8485 48.3616C48.4132 50.5835 50.2419 53.0651 52.6348 52.9771C54.9763 52.8807 55.8508 51.4944 58.6775 51.4944C61.4778 51.4944 62.2982 52.9771 64.7397 52.9211C67.2523 52.8807 68.8353 50.6896 70.3452 48.4468C71.4695 46.8637 72.3346 45.114 72.9085 43.2626C71.4488 42.6495 70.203 41.6233 69.3267 40.3119C68.4503 39.0004 67.9821 37.4619 67.9804 35.888ZM63.369 22.3266C64.739 20.6935 65.4139 18.5944 65.2505 16.4751C63.1575 16.6934 61.2241 17.6867 59.8356 19.2572C59.1567 20.0244 58.6367 20.9169 58.3054 21.8838C57.9741 22.8507 57.838 23.8729 57.9048 24.8921C58.9517 24.9028 59.9874 24.6775 60.9339 24.2331C61.8804 23.7887 62.713 23.1368 63.369 22.3266ZM97.5797 47.3526H89.589L87.67 52.9791H84.2853L91.8541 32.1621H95.3706L102.939 52.9791H99.497L97.5797 47.3526ZM90.4165 44.7561H96.7505L93.6281 35.6246H93.5406L90.4165 44.7561ZM119.285 45.3914C119.285 50.1077 116.743 53.1379 112.907 53.1379C111.935 53.1884 110.968 52.9661 110.118 52.4965C109.267 52.0269 108.567 51.3289 108.098 50.4825H108.025V58H104.888V37.8019H107.925V40.3263H107.982C108.474 39.484 109.186 38.7897 110.042 38.3172C110.899 37.8447 111.869 37.6118 112.849 37.6431C116.728 37.6431 119.285 40.6881 119.285 45.3913V45.3914ZM116.06 45.3914C116.06 42.3187 114.461 40.2985 112.021 40.2985C109.624 40.2985 108.012 42.3611 108.012 45.3913C108.012 48.4495 109.624 50.4975 112.021 50.4975C114.461 50.4975 116.06 48.492 116.06 45.3913V45.3914ZM136.107 45.3914C136.107 50.1077 133.565 53.1379 129.729 53.1379C128.757 53.1884 127.791 52.9661 126.94 52.4965C126.09 52.0268 125.39 51.3289 124.92 50.4825H124.847V58H121.71V37.8019H124.747V40.3263H124.805C125.296 39.484 126.008 38.7897 126.865 38.3172C127.722 37.8447 128.692 37.6118 129.671 37.6431C133.55 37.6431 136.107 40.6881 136.107 45.3913V45.3914ZM132.883 45.3914C132.883 42.3187 131.284 40.2985 128.844 40.2985C126.447 40.2985 124.834 42.3611 124.834 45.3913C124.834 48.4495 126.447 50.4975 128.844 50.4975C131.284 50.4975 132.883 48.492 132.883 45.3913V45.3914ZM147.226 47.1791C147.458 49.2434 149.478 50.5989 152.237 50.5989C154.882 50.5989 156.784 49.2434 156.784 47.3819C156.784 45.7661 155.637 44.7987 152.92 44.1357L150.203 43.4857C146.354 42.5624 144.566 40.7747 144.566 37.8738C144.566 34.282 147.719 31.8151 152.194 31.8151C156.624 31.8151 159.661 34.282 159.763 37.8738H156.596C156.407 35.7965 154.677 34.5424 152.15 34.5424C149.623 34.5424 147.893 35.8112 147.893 37.6577C147.893 39.1296 148.998 39.9956 151.7 40.6584L154.01 41.2217C158.311 42.2317 160.098 43.9474 160.098 46.9922C160.098 50.8869 156.974 53.3261 152.005 53.3261C147.356 53.3261 144.217 50.944 144.014 47.1789L147.226 47.1791ZM166.869 34.2103V37.8019H169.775V40.269H166.869V48.636C166.869 49.9359 167.451 50.5415 168.728 50.5415C169.073 50.5356 169.418 50.5115 169.76 50.4695V52.922C169.186 53.0285 168.602 53.0767 168.018 53.0658C164.923 53.0658 163.716 51.9118 163.716 48.9683V40.269H161.494V37.8019H163.716V34.2103H166.869ZM171.458 45.3914C171.458 40.616 174.291 37.6153 178.707 37.6153C183.139 37.6153 185.958 40.616 185.958 45.3914C185.958 50.1798 183.154 53.1674 178.707 53.1674C174.263 53.1674 171.458 50.1798 171.458 45.3914ZM182.761 45.3914C182.761 42.1157 181.249 40.1821 178.707 40.1821C176.165 40.1821 174.655 42.1302 174.655 45.3914C174.655 48.6803 176.165 50.5989 178.707 50.5989C181.249 50.5989 182.761 48.6803 182.761 45.3914ZM188.544 37.8019H191.537V40.3852H191.609C191.812 39.5783 192.288 38.8653 192.957 38.366C193.627 37.8666 194.449 37.6114 195.286 37.6431C195.647 37.6419 196.008 37.6808 196.361 37.7593V40.6733C195.904 40.5348 195.428 40.4712 194.951 40.4851C194.495 40.4667 194.041 40.5465 193.619 40.719C193.197 40.8914 192.818 41.1525 192.507 41.4842C192.197 41.816 191.962 42.2105 191.82 42.6408C191.677 43.0711 191.63 43.5269 191.682 43.9769V52.9791H188.544V37.8019ZM210.825 48.5214C210.403 51.2766 207.701 53.1674 204.244 53.1674C199.798 53.1674 197.038 50.2093 197.038 45.4634C197.038 40.7028 199.813 37.6153 204.112 37.6153C208.341 37.6153 211 40.4998 211 45.1016V46.1689H200.205V46.3572C200.155 46.9157 200.226 47.4784 200.412 48.0079C200.598 48.5374 200.895 49.0215 201.284 49.4281C201.673 49.8347 202.144 50.1545 202.667 50.3662C203.19 50.578 203.752 50.6768 204.317 50.6562C205.058 50.7252 205.802 50.5547 206.438 50.1701C207.074 49.7854 207.568 49.2072 207.846 48.5214H210.825ZM200.22 43.9917H207.861C207.889 43.4894 207.813 42.9868 207.636 42.5154C207.459 42.044 207.186 41.6139 206.834 41.2522C206.482 40.8905 206.059 40.605 205.59 40.4135C205.122 40.222 204.619 40.1288 204.112 40.1396C203.601 40.1366 203.095 40.234 202.622 40.4264C202.149 40.6188 201.72 40.9022 201.358 41.2603C200.996 41.6185 200.709 42.0442 200.514 42.513C200.318 42.9818 200.219 43.4844 200.22 43.9917ZM90.0233 16.493C90.6811 16.4461 91.3411 16.5448 91.9558 16.7819C92.5705 17.019 93.1245 17.3886 93.5779 17.8641C94.0314 18.3396 94.3728 18.909 94.5778 19.5314C94.7827 20.1538 94.846 20.8136 94.763 21.4633C94.763 24.6587 93.0237 26.4957 90.0233 26.4957H86.3848V16.4928L90.0233 16.493ZM87.9494 25.081H89.8486C90.3186 25.1089 90.7889 25.0323 91.2254 24.857C91.6618 24.6816 92.0534 24.4118 92.3716 24.0672C92.6898 23.7226 92.9266 23.3119 93.0648 22.8649C93.2029 22.418 93.239 21.9461 93.1704 21.4835C93.2341 21.0228 93.1943 20.5538 93.054 20.1102C92.9137 19.6665 92.6763 19.2592 92.3588 18.9173C92.0414 18.5754 91.6517 18.3075 91.2177 18.1328C90.7837 17.958 90.3162 17.8808 89.8486 17.9065H87.9494V25.081ZM96.5304 22.718C96.4826 22.2219 96.5397 21.7214 96.6981 21.2486C96.8565 20.7757 97.1127 20.341 97.4502 19.9722C97.7878 19.6034 98.1992 19.3088 98.6581 19.1071C99.1171 18.9055 99.6133 18.8014 100.115 18.8014C100.617 18.8014 101.113 18.9055 101.572 19.1071C102.031 19.3088 102.443 19.6034 102.78 19.9722C103.118 20.341 103.374 20.7757 103.532 21.2486C103.691 21.7214 103.748 22.2219 103.7 22.718C103.749 23.2147 103.692 23.716 103.535 24.1897C103.377 24.6634 103.121 25.0991 102.783 25.4687C102.445 25.8383 102.034 26.1336 101.574 26.3357C101.115 26.5379 100.618 26.6423 100.115 26.6423C99.6127 26.6423 99.1157 26.5379 98.6562 26.3357C98.1968 26.1336 97.785 25.8383 97.4474 25.4687C97.1098 25.0991 96.8537 24.6634 96.6958 24.1897C96.5379 23.716 96.4815 23.2147 96.5304 22.718ZM102.157 22.718C102.157 21.0817 101.417 20.1248 100.118 20.1248C98.8136 20.1248 98.0801 21.0817 98.0801 22.718C98.0801 24.3674 98.8138 25.3169 100.118 25.3169C101.417 25.3169 102.157 24.3608 102.157 22.718ZM113.231 26.4955H111.674L110.103 20.936H109.985L108.42 26.4955H106.879L104.783 18.9469H106.305L107.667 24.7068H107.779L109.342 18.9469H110.781L112.344 24.7068H112.462L113.818 18.9469H115.318L113.231 26.4955ZM117.08 18.947H118.524V20.1461H118.636C118.827 19.7154 119.147 19.3543 119.554 19.1133C119.961 18.8722 120.433 18.7631 120.905 18.8012C121.275 18.7736 121.646 18.829 121.992 18.9633C122.337 19.0975 122.648 19.3072 122.9 19.5769C123.153 19.8465 123.341 20.1691 123.451 20.5209C123.561 20.8726 123.59 21.2444 123.536 21.6088V26.4953H122.036V21.9829C122.036 20.7699 121.505 20.1666 120.395 20.1666C120.144 20.155 119.894 20.1974 119.661 20.291C119.428 20.3846 119.218 20.5272 119.045 20.7089C118.873 20.8905 118.742 21.1071 118.662 21.3437C118.582 21.5802 118.554 21.8312 118.58 22.0795V26.4955H117.08V18.947ZM125.927 16.0002H127.427V26.4955H125.927V16.0002ZM129.512 22.718C129.464 22.2219 129.522 21.7213 129.68 21.2484C129.838 20.7755 130.095 20.3407 130.432 19.9718C130.77 19.603 131.181 19.3083 131.64 19.1067C132.099 18.905 132.596 18.8008 133.098 18.8008C133.599 18.8008 134.096 18.905 134.555 19.1067C135.014 19.3083 135.425 19.603 135.763 19.9718C136.1 20.3407 136.357 20.7755 136.515 21.2484C136.674 21.7213 136.731 22.2219 136.683 22.718C136.731 23.2146 136.675 23.7157 136.517 24.1893C136.359 24.6629 136.103 25.0984 135.765 25.4678C135.427 25.8373 135.016 26.1325 134.556 26.3345C134.097 26.5366 133.6 26.6409 133.098 26.6409C132.595 26.6409 132.098 26.5366 131.639 26.3345C131.18 26.1325 130.768 25.8373 130.43 25.4678C130.092 25.0984 129.836 24.6629 129.678 24.1893C129.52 23.7157 129.464 23.2146 129.512 22.718ZM135.139 22.718C135.139 21.0817 134.399 20.1248 133.1 20.1248C131.795 20.1248 131.062 21.0817 131.062 22.718C131.062 24.3674 131.796 25.3169 133.1 25.3169C134.399 25.3169 135.139 24.3608 135.139 22.718ZM138.262 24.3608C138.262 23.002 139.281 22.2186 141.09 22.1073L143.149 21.9895V21.3379C143.149 20.5406 142.618 20.0905 141.592 20.0905C140.755 20.0905 140.175 20.3957 140.008 20.9295H138.556C138.709 19.6328 139.937 18.8014 141.662 18.8014C143.567 18.8014 144.642 19.7435 144.642 21.3379V26.4955H143.198V25.4347H143.079C142.838 25.8152 142.5 26.1254 142.099 26.3337C141.698 26.5419 141.248 26.6407 140.796 26.6199C140.477 26.6529 140.154 26.619 139.849 26.5206C139.544 26.4222 139.263 26.2614 139.024 26.0486C138.786 25.8358 138.595 25.5756 138.463 25.2849C138.332 24.9942 138.263 24.6794 138.262 24.3608ZM143.149 23.7158V23.0846L141.292 23.2025C140.245 23.272 139.771 23.6258 139.771 24.2911C139.771 24.9705 140.364 25.366 141.18 25.366C141.419 25.39 141.661 25.3661 141.89 25.2955C142.12 25.2249 142.333 25.1092 142.517 24.9553C142.7 24.8013 142.851 24.6122 142.959 24.3993C143.068 24.1863 143.132 23.9539 143.149 23.7158ZM146.614 22.718C146.614 20.3327 147.849 18.8218 149.769 18.8218C150.244 18.8001 150.716 18.9131 151.129 19.1476C151.542 19.3821 151.879 19.7284 152.101 20.1461H152.213V16H153.713V26.4953H152.275V25.3026H152.157C151.918 25.7175 151.569 26.0596 151.148 26.2917C150.727 26.5239 150.251 26.6373 149.77 26.6197C147.836 26.6197 146.614 25.1087 146.614 22.7178V22.718ZM148.164 22.718C148.164 24.3189 148.924 25.2825 150.195 25.2825C151.459 25.2825 152.241 24.3052 152.241 22.7244C152.241 21.1513 151.451 20.1601 150.195 20.1601C148.932 20.1601 148.164 21.13 148.164 22.718ZM159.92 22.718C159.872 22.2219 159.929 21.7214 160.088 21.2486C160.246 20.7757 160.502 20.341 160.84 19.9722C161.177 19.6034 161.589 19.3088 162.048 19.1071C162.507 18.9055 163.003 18.8014 163.505 18.8014C164.006 18.8014 164.503 18.9055 164.962 19.1071C165.421 19.3088 165.832 19.6034 166.17 19.9722C166.507 20.341 166.763 20.7757 166.922 21.2486C167.08 21.7214 167.137 22.2219 167.089 22.718C167.138 23.2147 167.082 23.716 166.924 24.1897C166.766 24.6634 166.51 25.0991 166.172 25.4687C165.835 25.8383 165.423 26.1336 164.964 26.3357C164.504 26.5379 164.007 26.6423 163.505 26.6423C163.002 26.6423 162.505 26.5379 162.046 26.3357C161.586 26.1336 161.174 25.8383 160.837 25.4687C160.499 25.0991 160.243 24.6634 160.085 24.1897C159.927 23.716 159.871 23.2147 159.92 22.718ZM165.546 22.718C165.546 21.0817 164.806 20.1248 163.507 20.1248C162.203 20.1248 161.47 21.0817 161.47 22.718C161.47 24.3674 162.203 25.3169 163.507 25.3169C164.806 25.3169 165.546 24.3608 165.546 22.718ZM169.102 18.947H170.547V20.1461H170.659C170.849 19.7154 171.17 19.3543 171.576 19.1133C171.983 18.8722 172.455 18.7631 172.927 18.8012C173.297 18.7736 173.669 18.829 174.014 18.9633C174.359 19.0975 174.67 19.3072 174.923 19.5769C175.175 19.8465 175.364 20.1691 175.474 20.5209C175.584 20.8726 175.613 21.2444 175.558 21.6088V26.4953H174.058V21.9829C174.058 20.7699 173.527 20.1666 172.418 20.1666C172.167 20.155 171.916 20.1974 171.683 20.291C171.45 20.3846 171.24 20.5272 171.068 20.7089C170.895 20.8905 170.764 21.1071 170.684 21.3437C170.604 21.5802 170.576 21.8312 170.603 22.0795V26.4955H169.103L169.102 18.947ZM184.036 17.0677V18.9814H185.683V20.2362H184.036V24.1176C184.036 24.9083 184.364 25.2547 185.11 25.2547C185.302 25.254 185.493 25.2425 185.682 25.2201V26.4612C185.413 26.509 185.14 26.5345 184.866 26.5373C183.198 26.5373 182.534 25.9544 182.534 24.4991V20.2362H181.327V18.9812H182.534V17.0678L184.036 17.0677ZM187.732 16.0002H189.219V20.1601H189.337C189.537 19.7253 189.866 19.3622 190.281 19.1202C190.696 18.8782 191.176 18.7691 191.655 18.8077C192.023 18.7878 192.391 18.8488 192.733 18.9864C193.074 19.1239 193.381 19.3346 193.631 19.6034C193.881 19.8722 194.068 20.1925 194.179 20.5414C194.29 20.8904 194.322 21.2593 194.273 21.622V26.4955H192.772V21.9895C192.772 20.7837 192.206 20.1731 191.146 20.1731C190.888 20.1521 190.629 20.1874 190.386 20.2763C190.143 20.3652 189.923 20.5058 189.741 20.688C189.559 20.8703 189.419 21.09 189.331 21.3316C189.243 21.5732 189.209 21.831 189.232 22.0869V26.4955H187.732V16.0002ZM203.021 24.4572C202.817 25.1472 202.375 25.7439 201.773 26.1432C201.171 26.5424 200.447 26.7187 199.727 26.6412C199.226 26.6543 198.728 26.5591 198.268 26.3621C197.808 26.165 197.397 25.871 197.063 25.5003C196.729 25.1296 196.48 24.6911 196.334 24.2153C196.187 23.7395 196.147 23.2378 196.215 22.745C196.149 22.2506 196.19 21.7478 196.336 21.2706C196.482 20.7934 196.729 20.3529 197.062 19.9789C197.394 19.6049 197.803 19.3062 198.262 19.103C198.721 18.8999 199.218 18.7969 199.72 18.8012C201.835 18.8012 203.112 20.2362 203.112 22.6065V23.1264H197.744V23.2099C197.72 23.4869 197.755 23.7657 197.847 24.0285C197.938 24.2912 198.084 24.5321 198.274 24.7357C198.465 24.9393 198.696 25.1011 198.953 25.2108C199.211 25.3204 199.488 25.3754 199.768 25.3724C200.127 25.4151 200.491 25.351 200.813 25.188C201.135 25.0251 201.401 24.7707 201.577 24.4572H203.021ZM197.744 22.0247H201.583C201.602 21.7713 201.567 21.5169 201.481 21.2776C201.395 21.0384 201.26 20.8196 201.084 20.6355C200.908 20.4513 200.694 20.3058 200.458 20.2083C200.222 20.1108 199.968 20.0634 199.712 20.0692C199.453 20.0659 199.195 20.1143 198.955 20.2115C198.714 20.3086 198.496 20.4525 198.313 20.6348C198.129 20.817 197.984 21.0339 197.887 21.2726C197.789 21.5113 197.74 21.767 197.744 22.0247Z" fill="white"/>
<defs>
<filter id="filter0_dddd_0_825" x="0.518518" y="0.703704" width="252.963" height="132.296" filterUnits="userSpaceOnUse" color-interpolation-filters="sRGB">
<feFlood flood-opacity="0" result="BackgroundImageFix"/>
<feColorMatrix in="SourceAlpha" type="matrix" values="0 0 0 0 0 0 0 0 0 0 0 0 0 0 0 0 0 0 127 0" result="hardAlpha"/>
<feOffset dy="1.85185"/>
<feGaussianBlur stdDeviation="1.57407"/>
<feColorMatrix type="matrix" values="0 0 0 0 0.219608 0 0 0 0 0.219608 0 0 0 0 0.219608 0 0 0 0.0240741 0"/>
<feBlend mode="normal" in2="BackgroundImageFix" result="effect1_dropShadow_0_825"/>
<feColorMatrix in="SourceAlpha" type="matrix" values="0 0 0 0 0 0 0 0 0 0 0 0 0 0 0 0 0 0 127 0" result="hardAlpha"/>
<feOffset dy="8.14815"/>
<feGaussianBlur stdDeviation="3.25926"/>
<feColorMatrix type="matrix" values="0 0 0 0 0.219608 0 0 0 0 0.219608 0 0 0 0 0.219608 0 0 0 0.0392593 0"/>
<feBlend mode="normal" in2="effect1_dropShadow_0_825" result="effect2_dropShadow_0_825"/>
<feColorMatrix in="SourceAlpha" type="matrix" values="0 0 0 0 0 0 0 0 0 0 0 0 0 0 0 0 0 0 127 0" result="hardAlpha"/>
<feOffset dy="20"/>
<feGaussianBlur stdDeviation="6.5"/>
<feColorMatrix type="matrix" values="0 0 0 0 0.219608 0 0 0 0 0.219608 0 0 0 0 0.219608 0 0 0 0.05 0"/>
<feBlend mode="normal" in2="effect2_dropShadow_0_825" result="effect3_dropShadow_0_825"/>
<feColorMatrix in="SourceAlpha" type="matrix" values="0 0 0 0 0 0 0 0 0 0 0 0 0 0 0 0 0 0 127 0" result="hardAlpha"/>
<feOffset dy="38.5185"/>
<feGaussianBlur stdDeviation="12.7407"/>
<feColorMatrix type="matrix" values="0 0 0 0 0.219608 0 0 0 0 0.219608 0 0 0 0 0.219608 0 0 0 0.0607407 0"/>
<feBlend mode="normal" in2="effect3_dropShadow_0_825" result="effect4_dropShadow_0_825"/>
<feBlend mode="normal" in="SourceGraphic" in2="effect4_dropShadow_0_825" result="shape"/>
</filter>
</defs>
</svg>
