<svg width="254" height="133" viewBox="0 0 254 133" fill="none" xmlns="http://www.w3.org/2000/svg">
<g filter="url(#filter0_dddd_0_829)">
<path d="M220.519 2H33.4815C29.3667 2 26 5.76874 26 10.375V60.625C26 65.2313 29.3667 69 33.4815 69H220.519C224.633 69 228 65.2313 228 60.625V10.375C228 5.76874 224.633 2 220.519 2Z" fill="black"/>
<path fill-rule="evenodd" clip-rule="evenodd" d="M33.4815 2H220.519C224.633 2 228 5.76874 228 10.375V60.625C228 65.2313 224.633 69 220.519 69H33.4815C29.3667 69 26 65.2313 26 60.625V10.375C26 5.76874 29.3667 2 33.4815 2Z" fill="black"/>
</g>
<path d="M219.667 68H34.3333C30.3001 68 27 64.3438 27 59.875V11.125C27 6.65624 30.3 3 34.3333 3H219.667C223.7 3 227 6.65624 227 11.125V59.875C227 64.3438 223.7 68 219.667 68Z" fill="black"/>
<path d="M97 18.3886C97 19.7252 96.6319 20.7895 95.8947 21.5835C95.0573 22.5276 93.966 23 92.6244 23C91.3397 23 90.2473 22.5214 89.349 21.5629C88.4491 20.6051 88 19.4174 88 18.0003C88 16.5826 88.4491 15.3956 89.349 14.437C90.2473 13.4793 91.3397 13 92.6244 13C93.262 13 93.8723 13.1341 94.4518 13.4014C95.0312 13.6694 95.496 14.0252 95.8438 14.4707L95.0614 15.3126C94.4721 14.5555 93.6607 14.1772 92.6244 14.1772C91.6875 14.1772 90.8773 14.5312 90.1935 15.2397C89.5096 15.9489 89.1677 16.8687 89.1677 18.0003C89.1677 19.1321 89.5096 20.0517 90.1935 20.761C90.8773 21.4695 91.6874 21.8235 92.6244 21.8235C93.6184 21.8235 94.4472 21.4676 95.1106 20.7548C95.5413 20.2904 95.7904 19.6449 95.857 18.816H92.6244V17.6663H96.9379C96.9796 17.9163 96.9999 18.1562 96.9999 18.3886" fill="white"/>
<path d="M97.156 18.9143H97.0075C97.0063 20.3066 96.6512 21.3879 95.9448 22.1997L95.9432 22.2011L95.9425 22.2025C95.1311 23.1742 94.0881 23.6578 92.7767 23.6599C91.5252 23.6578 90.4776 23.1689 89.6029 22.1778C88.7301 21.1847 88.2985 19.9723 88.2968 18.5003C88.2985 17.0277 88.7301 15.816 89.6029 14.8236C90.4776 13.8318 91.5252 13.3422 92.7767 13.3401C93.3956 13.3401 93.985 13.4784 94.5469 13.754C95.1095 14.0318 95.5539 14.3957 95.8851 14.8476L95.9988 14.7378L95.8938 14.6176L95.1107 15.5156L95.2157 15.6352L95.33 15.5264C94.7128 14.6793 93.8464 14.2523 92.7768 14.2549C91.8042 14.2535 90.9486 14.6515 90.2409 15.4354C89.5264 16.2219 89.1674 17.2575 89.1686 18.5003C89.1674 19.7433 89.5264 20.7788 90.2409 21.5653C90.9486 22.3492 91.8042 22.7472 92.7767 22.7458C93.8045 22.7479 94.6804 22.3485 95.37 21.5568C95.8305 21.0279 96.0916 20.2953 96.16 19.3845L96.1739 19.1998H92.9252V18.3143H97.0939V18.1443L96.9476 18.1742C96.9883 18.432 97.0074 18.677 97.0074 18.9143H97.3044C97.3044 18.6558 97.2835 18.3901 97.24 18.1138L97.218 17.9742H92.6283V19.5399H96.0121V19.3699L95.8642 19.3553C95.7987 20.2109 95.5608 20.8553 95.1601 21.3164C94.5221 22.0444 93.739 22.4037 92.7768 22.4057C91.8738 22.4043 91.1076 22.0483 90.4469 21.3209C89.7927 20.5961 89.4673 19.6708 89.4656 18.5003C89.4673 17.3299 89.7927 16.4045 90.4469 15.6798C91.1076 14.9524 91.8737 14.5963 92.7768 14.595C93.7808 14.5977 94.539 14.9776 95.1022 15.7449L95.2066 15.8871L96.1038 14.8581L96.2001 14.7479L96.1125 14.6288C95.7476 14.1307 95.2616 13.7354 94.6642 13.4419C94.0656 13.1475 93.434 13 92.7768 13C91.4567 12.9987 90.3176 13.5301 89.3936 14.5817C88.4662 15.6313 87.9987 16.9506 88 18.5003C87.9987 20.0494 88.4662 21.3694 89.3942 22.4196C90.3176 23.4706 91.4567 24.0014 92.7768 24C94.1514 24.0014 95.2918 23.4785 96.1572 22.4375L96.0498 22.32L96.1548 22.4403C96.9239 21.56 97.3055 20.371 97.3045 18.9143H97.156H97.156ZM104 14.6521H99.9428V17.8873H103.602V19.1134H99.9428V22.3485H104V23.602H98.7991V13.3986H104V14.6521Z" fill="white"/>
<path d="M103.491 15.3502V15.1889H99.174V18.5799H102.929V19.4197L99.1739 19.4201V22.8111H103.338V23.6774H98.3048V14.3226H103.338V15.3502H103.491V15.1889V15.3502H103.643V14H98V24H103.643V22.4886H99.4788V19.7427H103.234V18.2573H99.4788V15.5114H103.643V15.3502H103.491ZM108.446 23.8388H107.27V15.3501H104.716V14.1612H111V15.3501H108.446V23.8386" fill="white"/>
<path d="M108.832 23.8389V23.6775H107.822V15.1889H105.301V14.3226H111.202V15.1889H108.682V23.8388H108.832V23.6775V23.8388H108.982V15.5115H111.503V14H105V15.5114H107.521V24H108.982V23.8387H108.832V23.8389ZM115.841 23.8389V14.1612H117V23.8387H115.841" fill="white"/>
<path d="M116.151 23.8388H116.302V14.3226H117.162V23.6774H116.151V23.8387H116.302H116.151V24H117.464V14H116V24H116.151V23.8387V23.8388ZM122.472 23.8388H121.308V15.3501H118.781V14.1612H125V15.3501H122.472V23.8386" fill="white"/>
<path d="M121.748 22.7863V22.6267H120.76V14.2308H118.294V13.374H124.067V14.2308H121.601V22.7862H121.748V22.6267V22.7862H121.895V14.5499H124.361V13.0549H118V14.5498H120.466V22.9457H121.895V22.7861H121.748V22.7863ZM130.063 20.7479C130.717 21.4651 131.516 21.8234 132.462 21.8234C133.408 21.8234 134.208 21.4651 134.86 20.7479C135.514 20.0307 135.842 19.1138 135.842 18.0003C135.842 16.8869 135.514 15.97 134.86 15.2528C134.208 14.5355 133.408 14.1772 132.462 14.1772C131.516 14.1772 130.717 14.5355 130.063 15.2528C129.411 15.97 129.083 16.8868 129.083 18.0003C129.083 19.1138 129.411 20.0307 130.063 20.7479ZM135.699 21.5492C134.831 22.5169 133.752 23 132.462 23C131.171 23 130.092 22.5169 129.226 21.5492C128.357 20.5826 127.925 19.3994 127.925 18.0003C127.925 16.6012 128.357 15.4178 129.226 14.4514C130.092 13.4835 131.171 13 132.462 13C133.745 13 134.821 13.4861 135.693 14.4577C136.564 15.4291 137 16.61 137 18.0003C137 19.3994 136.565 20.5826 135.699 21.5492Z" fill="white"/>
<path d="M130.335 21.4293L130.228 21.5488C130.92 22.344 131.784 22.7479 132.785 22.7458C133.785 22.7479 134.65 22.344 135.341 21.5488C136.038 20.7529 136.389 19.7233 136.388 18.5003C136.389 17.2775 136.038 16.2478 135.341 15.4519C134.65 14.6567 133.785 14.2529 132.785 14.2549C131.784 14.2529 130.92 14.6567 130.228 15.4519C129.532 16.2478 129.181 17.2775 129.183 18.5003C129.181 19.7232 129.532 20.7529 130.228 21.5488L130.335 21.4293L130.441 21.3097C129.804 20.5756 129.485 19.6522 129.484 18.5003C129.485 17.3486 129.804 16.4252 130.441 15.691C131.085 14.9571 131.853 14.597 132.785 14.595C133.715 14.597 134.486 14.9571 135.128 15.691C135.766 16.4252 136.085 17.3486 136.086 18.5003C136.085 19.6521 135.766 20.5756 135.128 21.3097C134.486 22.0437 133.715 22.4037 132.785 22.4056C131.853 22.4037 131.085 22.0437 130.441 21.3097L130.335 21.4293ZM136.092 22.2834L135.984 22.1653C135.122 23.1643 134.068 23.6579 132.785 23.6599C131.501 23.6578 130.447 23.1643 129.586 22.1653L129.582 22.1599L129.586 22.1653C128.726 21.1628 128.302 19.9538 128.301 18.5003C128.302 17.0468 128.726 15.8379 129.586 14.8355C130.447 13.8364 131.501 13.3422 132.785 13.3402C134.06 13.3422 135.112 13.8384 135.978 14.8427C136.841 15.8498 137.268 17.0569 137.27 18.5003C137.268 19.9538 136.843 21.1628 135.984 22.1653L136.092 22.2834L136.2 22.4016C137.111 21.3428 137.572 20.0295 137.571 18.5003C137.572 16.9799 137.109 15.6692 136.194 14.6057C135.278 13.5381 134.131 12.9982 132.785 13C131.432 12.9982 130.281 13.5355 129.371 14.5991V14.5983C128.458 15.6579 127.999 16.9712 128 18.5003C127.999 20.0295 128.458 21.3428 129.371 22.4023L129.375 22.4071L129.371 22.4016C130.281 23.4652 131.432 24.0014 132.785 24C134.137 24.0014 135.288 23.4652 136.2 22.4016L136.092 22.2834ZM139.047 23.6021V13.3986H140.457L144.84 21.3361H144.89L144.84 19.3698V13.3986H146V23.602H144.79L140.205 15.2798H140.155L140.205 17.2468V23.602H139.047" fill="white"/>
<path d="M138.733 24.3253H138.883V14.3385H140.056L144.424 22.2391H144.711L144.657 20.1102V14.3386H145.513V24.1559H144.541L139.971 15.8724H139.684L139.738 18.0023V24.1559H138.734L138.733 24.3253L138.734 24.4944H140.037V17.9969L139.988 16.0371L139.838 16.0417V16.211H139.887V16.0417L139.76 16.1317L144.375 24.4944H145.813V14H144.358V20.1147L144.407 22.0744L144.557 22.0699V21.9006H144.507V22.0699L144.635 21.98L140.222 14H138.584V24.4944H138.734L138.733 24.3253ZM185.714 53.1003H188.509V31.9401H185.714L185.714 53.1003ZM210.892 39.5626L207.687 48.7365H207.591L204.266 39.5625H201.254L206.241 52.3849L203.398 59.5173H206.315L214 39.5625L210.892 39.5626ZM195.039 50.697C194.122 50.697 192.846 50.1799 192.846 48.8999C192.846 47.2666 194.437 46.6405 195.809 46.6405C197.039 46.6405 197.616 46.94 198.363 47.3488C198.146 49.3085 196.652 50.697 195.039 50.697ZM195.376 39.0996C193.352 39.0996 191.256 40.1072 190.389 42.3395L192.87 43.5098C193.4 42.3395 194.387 41.9579 195.424 41.9579C196.87 41.9579 198.339 42.9385 198.363 44.6808V44.8983C197.857 44.5716 196.774 44.0817 195.448 44.0817C192.774 44.0817 190.05 45.7419 190.05 48.8456C190.05 51.6769 192.244 53.501 194.7 53.501C196.581 53.501 197.616 52.5482 198.267 51.4322H198.363V53.0654H201.061V44.9524C201.061 41.1963 198.58 39.0996 195.376 39.0996ZM178.1 42.1384H174.125V34.8852H178.1C180.19 34.8852 181.377 36.8403 181.377 38.5117C181.377 40.1515 180.19 42.1384 178.1 42.1384ZM178.029 31.9401H171.331V53.1003H174.125V45.0834H178.029C181.127 45.0834 184.172 42.549 184.172 38.5117C184.172 34.4746 181.127 31.9401 178.029 31.9401ZM141.504 50.7009C139.573 50.7009 137.956 48.874 137.956 46.3648C137.956 43.8292 139.573 41.9745 141.504 41.9745C143.411 41.9745 144.907 43.8291 144.907 46.3648C144.907 48.874 143.411 50.7009 141.504 50.7009ZM144.714 40.7474H144.617C143.99 39.9022 142.783 39.1387 141.263 39.1387C138.077 39.1387 135.157 42.3018 135.157 46.3648C135.157 50.4008 138.077 53.5368 141.263 53.5368C142.783 53.5368 143.99 52.773 144.617 51.9009H144.714V52.937C144.714 55.6917 143.411 57.1641 141.311 57.1641C139.598 57.1641 138.536 55.7729 138.101 54.6006L135.664 55.7458C136.364 57.6546 138.222 60 141.311 60C144.593 60 147.369 57.818 147.369 52.5007V39.575H144.714V40.7474ZM149.299 53.1003H152.099V31.9394H149.299V53.1003ZM156.226 46.1195C156.154 43.3378 158.133 41.9202 159.557 41.9202C160.667 41.9202 161.608 42.547 161.921 43.4477L156.226 46.1195ZM164.915 43.72C164.384 42.1106 162.766 39.1387 159.46 39.1387C156.178 39.1387 153.451 42.0564 153.451 46.3377C153.451 50.3737 156.154 53.5368 159.774 53.5368C162.694 53.5368 164.384 51.5187 165.084 50.3464L162.912 48.7099C162.188 49.91 161.198 50.7009 159.774 50.7009C158.35 50.7009 157.336 49.9644 156.684 48.5195L165.204 44.5379L164.915 43.72ZM97.04 41.3476V44.4017H103.508C103.315 46.1195 102.808 47.3738 102.036 48.2465C101.095 49.3104 99.6224 50.4827 97.04 50.4827C93.0577 50.4827 89.9446 46.856 89.9446 42.3565C89.9446 37.8572 93.0577 34.23 97.04 34.23C99.1881 34.23 100.756 35.1846 101.915 36.4117L103.822 34.2577C102.205 32.5121 100.057 31.1759 97.04 31.1759C91.5855 31.1759 87 36.1936 87 42.3565C87 48.5195 91.5855 53.5368 97.04 53.5368C99.9846 53.5368 102.205 52.4465 103.942 50.4008C105.728 48.3827 106.284 45.5469 106.284 43.2565C106.284 42.547 106.235 41.8931 106.138 41.3476H97.04ZM113.637 50.7009C111.706 50.7009 110.04 48.901 110.04 46.3377C110.04 43.7471 111.706 41.9745 113.637 41.9745C115.567 41.9745 117.233 43.7471 117.233 46.3377C117.233 48.9011 115.567 50.7009 113.637 50.7009ZM113.637 39.1387C110.113 39.1387 107.241 42.1654 107.241 46.3377C107.241 50.4827 110.113 53.5368 113.637 53.5368C117.16 53.5368 120.032 50.4827 120.032 46.3377C120.032 42.1654 117.16 39.1387 113.637 39.1387ZM127.589 50.7009C125.658 50.7009 123.993 48.901 123.993 46.3377C123.993 43.7471 125.658 41.9745 127.589 41.9745C129.519 41.9745 131.185 43.7471 131.185 46.3377C131.185 48.9011 129.519 50.7009 127.589 50.7009ZM127.589 39.1387C124.065 39.1387 121.193 42.1654 121.193 46.3377C121.193 50.4827 124.065 53.5368 127.589 53.5368C131.112 53.5368 133.984 50.4827 133.984 46.3377C133.984 42.1654 131.112 39.1387 127.589 39.1387Z" fill="white"/>
<path d="M41.8123 14.5489C41.3036 15.061 41 15.915 41 17.0486V16.7923V54.2V53.9536C41 55.0005 41.2604 55.8089 41.7015 56.3296L41.8141 56.4498V56.4504C42.1711 56.8098 42.6289 57.0006 43.1535 57C43.6662 57 44.2429 56.8177 44.8516 56.4327L66.8537 42.4862L74.4112 37.6951C75.3711 37.0868 75.9099 36.302 76 35.5027V35.4994C75.9099 34.6982 75.3711 33.914 74.4113 33.3057L66.8531 28.5152L44.8517 14.5687C44.2417 14.183 43.6645 14 43.1505 14C42.6265 14 42.1693 14.1902 41.8125 14.5489H41.8123Z" fill="#00C1FF"/>
<path d="M41.7895 56L41.6803 55.8795C41.2526 55.3577 41 54.5472 41 53.4978V53.7448V16.2579V16.5055C41 15.3692 41.2945 14.5132 41.7877 14L60 35.0007L41.7895 56Z" fill="url(#paint0_linear_0_829)"/>
<path d="M66.0955 42L60 34.9994L66.0949 28L73.4533 32.8004C74.3877 33.4101 74.9123 34.1958 75 34.9987V35.0019C74.9123 35.803 74.3877 36.5894 73.4533 37.1989L66.0955 41.9999" fill="url(#paint1_linear_0_829)"/>
<path d="M43.3372 57C42.8134 57.0005 42.3564 56.814 42 56.4631V56.4626L60.7489 36L67 42.8236L45.0326 56.4458C44.4249 56.8219 43.849 57 43.3372 57Z" fill="url(#paint2_linear_0_829)"/>
<path d="M60.7498 36L42 15.5362C42.3564 15.1858 42.8128 15 43.3359 15C43.8491 15 44.4254 15.1787 45.0344 15.5555L67 29.1776L60.7498 36" fill="url(#paint3_linear_0_829)"/>
<path d="M43.4357 57C42.9172 57 42.4641 56.806 42.1112 56.4409L42.1106 56.4415C42.1092 56.4398 42.1076 56.4383 42.106 56.4369L42.0094 56.3287C42.0064 56.3253 42.0036 56.3214 42 56.3175L42.1113 56.1898C42.4641 56.5549 42.9165 56.7489 43.4352 56.7482C43.9418 56.7482 44.5119 56.5631 45.1136 56.1717L66.8607 42L67 42.1599L66.8589 42.2518L45.1135 56.4227C44.5652 56.7792 44.0437 56.9651 43.5726 56.9961C43.527 56.9986 43.4813 56.9999 43.4357 56.9999" fill="url(#paint4_linear_0_829)"/>
<path d="M41.8617 56C41.3199 55.4045 41 54.4803 41 53.2819V53C41 54.1976 41.3199 55.1225 41.8617 55.7181L42 55.8557L41.8617 56Z" fill="url(#paint5_linear_0_829)"/>
<path d="M66.1387 42.9999L66 42.8457L73.4367 38.1492C74.3812 37.553 74.9114 36.7836 75 36C75 36.2876 74.9423 36.5751 74.8276 36.8549C74.5962 37.4189 74.1325 37.9518 73.4367 38.3914L66.1387 43" fill="url(#paint6_linear_0_829)"/>
<path d="M75 36C74.9114 35.2146 74.3812 34.4461 73.4368 33.8497L66 29.1542L66.1387 29H66.1393L73.4368 33.6082C74.478 34.266 74.9994 35.1329 75 36Z" fill="url(#paint7_linear_0_829)"/>
<path d="M41 17V16.7046C41 16.598 41.0028 16.4938 41.0081 16.3927V16.3881C41.0081 16.3867 41.0081 16.3852 41.0086 16.3836V16.3723C41.0648 15.3412 41.3738 14.537 41.8636 14L42 14.1419C41.3738 14.7274 41 15.7039 41 17Z" fill="url(#paint8_linear_0_829)"/>
<path d="M66.8601 29L45.1136 14.8288C44.5107 14.4369 43.9402 14.2511 43.4321 14.2511C42.9142 14.2511 42.4623 14.4443 42.1095 14.8088L42 14.6826C42.0342 14.6411 42.0697 14.6011 42.1066 14.5626C42.1077 14.5612 42.1095 14.5598 42.1107 14.5585C42.4607 14.1968 42.9078 14.0035 43.4211 14H43.4321C43.9402 14 44.5107 14.186 45.1136 14.578L67 28.8396L66.9994 28.8401L66.8601 29Z" fill="url(#paint9_linear_0_829)"/>
<defs>
<filter id="filter0_dddd_0_829" x="0.518518" y="0.703704" width="252.963" height="132.296" filterUnits="userSpaceOnUse" color-interpolation-filters="sRGB">
<feFlood flood-opacity="0" result="BackgroundImageFix"/>
<feColorMatrix in="SourceAlpha" type="matrix" values="0 0 0 0 0 0 0 0 0 0 0 0 0 0 0 0 0 0 127 0" result="hardAlpha"/>
<feOffset dy="1.85185"/>
<feGaussianBlur stdDeviation="1.57407"/>
<feColorMatrix type="matrix" values="0 0 0 0 0.219608 0 0 0 0 0.219608 0 0 0 0 0.219608 0 0 0 0.0240741 0"/>
<feBlend mode="normal" in2="BackgroundImageFix" result="effect1_dropShadow_0_829"/>
<feColorMatrix in="SourceAlpha" type="matrix" values="0 0 0 0 0 0 0 0 0 0 0 0 0 0 0 0 0 0 127 0" result="hardAlpha"/>
<feOffset dy="8.14815"/>
<feGaussianBlur stdDeviation="3.25926"/>
<feColorMatrix type="matrix" values="0 0 0 0 0.219608 0 0 0 0 0.219608 0 0 0 0 0.219608 0 0 0 0.0392593 0"/>
<feBlend mode="normal" in2="effect1_dropShadow_0_829" result="effect2_dropShadow_0_829"/>
<feColorMatrix in="SourceAlpha" type="matrix" values="0 0 0 0 0 0 0 0 0 0 0 0 0 0 0 0 0 0 127 0" result="hardAlpha"/>
<feOffset dy="20"/>
<feGaussianBlur stdDeviation="6.5"/>
<feColorMatrix type="matrix" values="0 0 0 0 0.219608 0 0 0 0 0.219608 0 0 0 0 0.219608 0 0 0 0.05 0"/>
<feBlend mode="normal" in2="effect2_dropShadow_0_829" result="effect3_dropShadow_0_829"/>
<feColorMatrix in="SourceAlpha" type="matrix" values="0 0 0 0 0 0 0 0 0 0 0 0 0 0 0 0 0 0 127 0" result="hardAlpha"/>
<feOffset dy="38.5185"/>
<feGaussianBlur stdDeviation="12.7407"/>
<feColorMatrix type="matrix" values="0 0 0 0 0.219608 0 0 0 0 0.219608 0 0 0 0 0.219608 0 0 0 0.0607407 0"/>
<feBlend mode="normal" in2="effect3_dropShadow_0_829" result="effect4_dropShadow_0_829"/>
<feBlend mode="normal" in="SourceGraphic" in2="effect4_dropShadow_0_829" result="shape"/>
</filter>
<linearGradient id="paint0_linear_0_829" x1="52.6387" y1="15.8617" x2="34.7434" y2="31.4307" gradientUnits="userSpaceOnUse">
<stop stop-color="#00A0FF"/>
<stop offset="0.00657" stop-color="#00A1FF"/>
<stop offset="0.2601" stop-color="#00BEFF"/>
<stop offset="0.5122" stop-color="#00D2FF"/>
<stop offset="0.7604" stop-color="#00DFFF"/>
<stop offset="1" stop-color="#00E3FF"/>
</linearGradient>
<linearGradient id="paint1_linear_0_829" x1="76.1385" y1="34.8784" x2="40.4304" y2="34.8784" gradientUnits="userSpaceOnUse">
<stop stop-color="#FFE000"/>
<stop offset="0.4087" stop-color="#FFBD00"/>
<stop offset="0.7754" stop-color="#FFA500"/>
<stop offset="1" stop-color="#FF9C00"/>
</linearGradient>
<linearGradient id="paint2_linear_0_829" x1="63.6812" y1="42.4876" x2="33.9685" y2="69.6006" gradientUnits="userSpaceOnUse">
<stop stop-color="#FF3A44"/>
<stop offset="1" stop-color="#C31162"/>
</linearGradient>
<linearGradient id="paint3_linear_0_829" x1="37.1676" y1="12.5023" x2="50.4116" y2="24.6055" gradientUnits="userSpaceOnUse">
<stop stop-color="#32A071"/>
<stop offset="0.0685" stop-color="#2DA771"/>
<stop offset="0.4762" stop-color="#15CF74"/>
<stop offset="0.8009" stop-color="#06E775"/>
<stop offset="1" stop-color="#00F076"/>
</linearGradient>
<linearGradient id="paint4_linear_0_829" x1="63.5617" y1="46.5746" x2="38.9238" y2="68.1259" gradientUnits="userSpaceOnUse">
<stop stop-color="#CC2E36"/>
<stop offset="1" stop-color="#9C0E4E"/>
</linearGradient>
<linearGradient id="paint5_linear_0_829" x1="44.0731" y1="10.0468" x2="25.9167" y2="27.5789" gradientUnits="userSpaceOnUse">
<stop stop-color="#008DE0"/>
<stop offset="0.00657" stop-color="#008DE0"/>
<stop offset="0.2601" stop-color="#00A7E0"/>
<stop offset="0.5122" stop-color="#00B8E0"/>
<stop offset="0.7604" stop-color="#00C4E0"/>
<stop offset="1" stop-color="#00C7E0"/>
</linearGradient>
<linearGradient id="paint6_linear_0_829" x1="76.1508" y1="35.9985" x2="40.0597" y2="35.9985" gradientUnits="userSpaceOnUse">
<stop stop-color="#E0C500"/>
<stop offset="0.4087" stop-color="#E0A600"/>
<stop offset="0.7754" stop-color="#E09100"/>
<stop offset="1" stop-color="#E08900"/>
</linearGradient>
<linearGradient id="paint7_linear_0_829" x1="76.1507" y1="36.0016" x2="40.0622" y2="36.0016" gradientUnits="userSpaceOnUse">
<stop stop-color="#FFE840"/>
<stop offset="0.4087" stop-color="#FFCE40"/>
<stop offset="0.7754" stop-color="#FFBC40"/>
<stop offset="1" stop-color="#FFB540"/>
</linearGradient>
<linearGradient id="paint8_linear_0_829" x1="44.0608" y1="16.2985" x2="26.6067" y2="32.4657" gradientUnits="userSpaceOnUse">
<stop stop-color="#40B8FF"/>
<stop offset="0.00657" stop-color="#40B9FF"/>
<stop offset="0.2601" stop-color="#40CEFF"/>
<stop offset="0.5122" stop-color="#40DDFF"/>
<stop offset="0.7604" stop-color="#40E7FF"/>
<stop offset="1" stop-color="#40EAFF"/>
</linearGradient>
<linearGradient id="paint9_linear_0_829" x1="37.2982" y1="16.1548" x2="48.2997" y2="25.7786" gradientUnits="userSpaceOnUse">
<stop stop-color="#65B895"/>
<stop offset="0.0685" stop-color="#62BD95"/>
<stop offset="0.4762" stop-color="#50DB97"/>
<stop offset="0.8009" stop-color="#44ED98"/>
<stop offset="1" stop-color="#40F498"/>
</linearGradient>
</defs>
</svg>
