<svg width="24" height="24" viewBox="0 0 24 24" fill="none" xmlns="http://www.w3.org/2000/svg">
<g id="insta">
<path id="Vector" d="M11.998 8.15177C9.86846 8.15177 8.14983 9.87044 8.14983 12C8.14983 14.1296 9.86846 15.8482 11.998 15.8482C14.1275 15.8482 15.8461 14.1296 15.8461 12C15.8461 9.87044 14.1275 8.15177 11.998 8.15177ZM11.998 14.5011C10.6208 14.5011 9.49697 13.3772 9.49697 12C9.49697 10.6228 10.6208 9.49894 11.998 9.49894C13.3751 9.49894 14.499 10.6228 14.499 12C14.499 13.3772 13.3751 14.5011 11.998 14.5011ZM16.0037 7.09731C15.5065 7.09731 15.105 7.49883 15.105 7.99604C15.105 8.49326 15.5065 8.89478 16.0037 8.89478C16.5009 8.89478 16.9025 8.49513 16.9025 7.99604C16.9026 7.87798 16.8795 7.76105 16.8343 7.65194C16.7892 7.54283 16.723 7.4437 16.6396 7.36021C16.5561 7.27673 16.4569 7.21054 16.3478 7.16542C16.2387 7.12031 16.1218 7.09716 16.0037 7.09731ZM19.4992 12C19.4992 10.9643 19.5085 9.93798 19.4504 8.90416C19.3922 7.70335 19.1183 6.63763 18.2402 5.75953C17.3603 4.87956 16.2964 4.60751 15.0956 4.54934C14.06 4.49118 13.0337 4.50056 11.9999 4.50056C10.9642 4.50056 9.93788 4.49118 8.90408 4.54934C7.70329 4.60751 6.63759 4.88144 5.75951 5.75953C4.87956 6.6395 4.6075 7.70335 4.54934 8.90416C4.49118 9.93986 4.50056 10.9662 4.50056 12C4.50056 13.0338 4.49118 14.062 4.54934 15.0958C4.6075 16.2967 4.88143 17.3624 5.75951 18.2405C6.63946 19.1204 7.70329 19.3925 8.90408 19.4507C9.93976 19.5088 10.9661 19.4994 11.9999 19.4994C13.0355 19.4994 14.0618 19.5088 15.0956 19.4507C16.2964 19.3925 17.3621 19.1186 18.2402 18.2405C19.1202 17.3605 19.3922 16.2967 19.4504 15.0958C19.5104 14.062 19.4992 13.0357 19.4992 12ZM17.8481 16.4242C17.7111 16.7657 17.546 17.0209 17.2815 17.2836C17.0169 17.5481 16.7636 17.7132 16.4221 17.8502C15.4352 18.2423 13.0918 18.1542 11.998 18.1542C10.9041 18.1542 8.55885 18.2423 7.57195 17.8521C7.23048 17.7151 6.97531 17.55 6.71264 17.2854C6.44809 17.0209 6.28298 16.7676 6.14601 16.4261C5.75576 15.4373 5.84394 13.0939 5.84394 12C5.84394 10.9061 5.75576 8.5608 6.14601 7.57388C6.28298 7.2324 6.44809 6.97723 6.71264 6.71455C6.97719 6.45188 7.23048 6.28489 7.57195 6.14792C8.55885 5.75766 10.9041 5.84584 11.998 5.84584C13.0918 5.84584 15.4371 5.75766 16.424 6.14792C16.7655 6.28489 17.0207 6.45 17.2833 6.71455C17.5479 6.97911 17.713 7.2324 17.85 7.57388C18.2402 8.5608 18.152 10.9061 18.152 12C18.152 13.0939 18.2402 15.4373 17.8481 16.4242Z" fill="white"/>
</g>
</svg>
