<svg width="24" height="24" viewBox="0 0 24 24" fill="none" xmlns="http://www.w3.org/2000/svg">
<g id="linkedin">
<g id="Group 260">
<path id="Vector" d="M5.08546 7.28933C6.29386 7.28933 7.27346 6.30973 7.27346 5.10133C7.27346 3.89293 6.29386 2.91333 5.08546 2.91333C3.87706 2.91333 2.89746 3.89293 2.89746 5.10133C2.89746 6.30973 3.87706 7.28933 5.08546 7.28933Z" fill="white"/>
<path id="Vector_2" d="M9.33975 8.94673V21.0857H13.1088V15.0827C13.1088 13.4987 13.4068 11.9647 15.3708 11.9647C17.3078 11.9647 17.3318 13.7757 17.3318 15.1827V21.0867H21.1028V14.4297C21.1028 11.1597 20.3988 8.64673 16.5768 8.64673C14.7418 8.64673 13.5118 9.65373 13.0088 10.6067H12.9578V8.94673H9.33975ZM3.19775 8.94673H6.97275V21.0857H3.19775V8.94673Z" fill="white"/>
</g>
</g>
</svg>
