<svg width="187" height="72" viewBox="0 0 187 72" fill="none" xmlns="http://www.w3.org/2000/svg">
<g filter="url(#filter0_d_145_148)">
<path d="M49.3745 44.7279L49.1748 44.8868C48.3676 45.5316 47.6188 45.8473 46.8805 45.8473C46.2034 45.8473 45.5819 45.5808 45.0841 45.0808C43.5913 43.5797 42.5092 41.5483 41.8124 39.4889C41.413 40.2265 40.8463 41.0189 40.0539 41.6932C39.7094 41.9822 38.6336 42.8442 37.6731 43.0615C37.6471 43.2956 37.5951 43.5241 37.5402 43.7294C37.4734 43.9755 37.3722 44.2561 37.2569 44.5802C37.1064 45.0084 36.8202 45.8037 36.8111 46.1046C36.7794 47.2416 36.4237 47.9763 35.9491 48.4073C35.9723 48.4333 35.9863 48.4594 36.0039 48.4882C36.513 49.3502 36.591 50.5104 36.6487 51.3576C36.6599 51.5257 36.6691 51.679 36.6831 51.7971C36.6944 51.8927 36.7928 52.1613 36.8568 52.3378C37.1169 53.0466 37.5107 54.1111 37.0649 55.2192C36.553 56.4834 34.6525 57.9705 32.9917 58.4044C32.8208 58.448 32.6444 58.4712 32.4679 58.4712C32.0024 58.4712 31.5679 58.3094 31.2184 58.0373C30.8451 58.5091 30.3276 58.8417 29.7285 58.969C29.2771 59.0646 28.8116 59.1455 28.3518 59.2094C28.2393 59.2242 28.1261 59.2326 28.0164 59.2326C27.2092 59.2326 26.4892 58.8389 25.9998 58.2026C25.514 58.8389 24.7933 59.2326 23.9861 59.2326C23.8764 59.2326 23.7632 59.2242 23.6507 59.2094C23.1908 59.1455 22.7247 59.0646 22.2712 58.969C21.6721 58.8445 21.1546 58.5091 20.7812 58.0373C20.4311 58.3123 19.9973 58.4712 19.5346 58.4712C19.3581 58.4712 19.1816 58.448 19.0108 58.4044C17.35 57.9705 15.4466 56.4834 14.9376 55.2192C14.4918 54.1111 14.8855 53.0437 15.1457 52.3378C15.2097 52.1613 15.3074 51.892 15.3194 51.7971C15.3341 51.6783 15.3426 51.525 15.3538 51.3576C15.4115 50.5097 15.4867 49.3502 15.9958 48.4882C16.0133 48.4594 16.0302 48.4305 16.0506 48.4045C15.5788 47.9735 15.223 47.2416 15.1886 46.1046C15.1801 45.8037 14.8961 45.0084 14.7463 44.5802C14.6303 44.2561 14.529 43.9755 14.463 43.7294C14.4081 43.5241 14.3561 43.2956 14.3301 43.0615C13.3696 42.8442 12.2938 41.9822 11.9493 41.6932C11.154 41.0189 10.5894 40.2265 10.1908 39.4889C9.49327 41.5483 8.41186 43.5797 6.91913 45.0808C6.42132 45.5815 5.79975 45.8473 5.12264 45.8473C4.38507 45.8473 3.63272 45.5323 2.82835 44.8868L2.62866 44.7279C0.629675 43.1311 -0.570559 41.9505 -0.0382931 37.9758C-0.0298556 37.909 -0.0179026 37.8457 -0.00102758 37.7845C0.313972 36.5955 0.762566 35.7047 1.12397 34.9875C1.13241 34.9727 1.14155 34.9559 1.14999 34.9411C1.49733 34.3019 1.93397 33.9862 2.31296 33.8358C1.60983 31.2033 1.81233 27.2229 4.5953 24.4659C5.03475 24.0293 5.55296 23.6475 6.13163 23.329C6.68991 23.0252 7.31499 22.7735 7.98858 22.5886C9.05311 22.2905 10.2681 22.1083 11.4683 22.0619C11.5204 21.5065 11.8241 20.8905 12.5645 20.4244C14.3491 19.2994 17.5694 18.1997 19.4523 18.0696C19.4868 18.0668 19.5276 18.0668 19.562 18.0668C19.6084 18.0668 19.652 18.0696 19.7012 18.0724C19.742 18.0752 19.7821 18.078 19.8201 18.0837C19.7561 17.7307 19.6844 17.4473 19.6204 17.2012C19.4671 16.6141 19.2758 15.8822 19.7244 15.1502C19.9354 14.8057 20.2743 14.5111 20.789 14.2277C21.0955 14.0597 21.4337 13.9732 21.7902 13.9732C22.03 13.9732 22.2705 14.0105 22.5102 14.0892C22.7795 13.609 23.271 13.2412 23.9073 13.0479C24.6941 12.8194 25.2812 12.773 25.9759 12.7673H26.0167C26.7198 12.773 27.3069 12.8194 28.079 13.0423C28.7273 13.2391 29.2215 13.609 29.4908 14.0892C29.7306 14.0112 29.9711 13.9732 30.208 13.9732C30.5666 13.9732 30.902 14.0597 31.2121 14.2277C31.7268 14.5111 32.0629 14.8064 32.2738 15.1502C32.7224 15.8822 32.5312 16.6141 32.3779 17.2012C32.3139 17.4445 32.2387 17.7307 32.1782 18.0865C32.219 18.078 32.2591 18.0752 32.2998 18.0717C32.3491 18.0689 32.3926 18.0661 32.4383 18.0661C32.47 18.0661 32.5108 18.0661 32.5424 18.0689C34.4317 18.199 37.6513 19.2987 39.4358 20.4237C40.1762 20.8891 40.48 21.5058 40.532 22.0612C41.7323 22.1076 42.9473 22.2898 44.0118 22.5879C44.6861 22.7728 45.3105 23.0245 45.8687 23.3283C46.4474 23.6468 46.9649 24.0286 47.4051 24.4652C50.188 27.2222 50.3905 31.2054 49.6874 33.8379C50.0692 33.9883 50.503 34.3062 50.8504 34.9432C50.8588 34.9544 50.8651 34.9692 50.8736 34.984C51.2378 35.704 51.6864 36.5955 52.0021 37.7845C52.0197 37.8485 52.0309 37.9146 52.0394 37.9814C52.5688 41.9505 51.3714 43.1304 49.3724 44.7272L49.3745 44.7279Z" fill="#0AE20A"/>
<path d="M33.8339 23.1752C34.0624 23.4016 34.5848 23.6603 34.9012 23.6547C34.9856 23.6533 35.0742 23.6519 35.1571 23.6224C36.2174 23.2427 36.5472 22.7695 38.7803 22.5874C39.1052 22.5606 39.3288 22.0663 38.6664 21.6494C36.9663 20.5785 33.9885 19.6202 32.4494 19.5154C32.4346 19.5147 32.4206 19.5154 32.4058 19.5175C32.2912 19.5217 32.1892 19.5674 32.1105 19.6406C32.0331 19.7137 31.979 19.8142 31.9649 19.9274C31.8292 21.0131 32.8874 22.2393 33.8339 23.1766V23.1752Z" fill="#060706"/>
<path d="M26.534 27.396C26.2422 29.8232 26.5572 31.5677 26.8159 32.403C27.114 33.3649 27.9022 33.9759 28.8001 34.3612C29.6833 34.7395 30.8983 35.3259 33.066 35.373C36.1696 35.4398 40.3729 34.4589 40.7589 32.4817C40.9347 31.6422 40.8243 30.5573 40.1261 29.4604C37.7572 25.7409 34.3689 24.9527 32.7587 24.8437C31.0776 24.7305 29.9378 24.8557 29.0378 24.9871C27.8242 25.1629 26.6809 26.1796 26.534 27.3967V27.396Z" fill="#060706"/>
<path d="M27.7356 39.1228C29.1854 39.1397 30.8202 39.5819 32.7334 41.1984C33.4077 41.7679 33.8401 41.7771 34.2388 41.5556C36.5584 40.2696 37.7896 39.0356 38.4821 36.8693C38.6776 36.2575 38.2466 36.0607 37.3712 36.2688C35.1796 36.7891 31.4537 37.1786 27.9353 35.6339C27.6484 35.5073 27.3263 35.5298 27.0521 35.6943C26.915 35.7766 26.7983 35.8905 26.7076 36.0241C26.6169 36.1584 26.5522 36.3138 26.522 36.4811C26.3912 37.1822 26.6267 37.5021 26.7273 38.1722C26.8081 38.7079 27.2188 39.1024 27.7088 39.1207H27.7349L27.7356 39.1228Z" fill="#060706"/>
<path d="M26.4889 48.7148C26.5662 49.2028 26.9065 49.6274 27.3474 49.6464C28.8436 49.7118 28.6397 50.436 29.9039 50.2659C30.9214 50.1288 31.4642 49.4278 31.7489 48.7851C32.1012 47.9899 32.2629 47.3641 32.3719 46.7524C32.4282 46.436 32.4429 45.6295 31.6955 45.6238C31.2666 45.621 30.8581 45.7075 30.465 45.8313C29.3921 46.1702 28.6953 46.116 27.6244 45.9135C27.1477 45.8235 26.685 46.2412 26.5599 46.7861C26.4122 47.4316 26.3876 48.0799 26.4896 48.7155L26.4889 48.7148Z" fill="#060706"/>
<path d="M26.5312 43.8042C26.6205 44.2556 26.984 44.5593 27.4256 44.7014C28.9274 45.1858 29.7016 44.8104 30.7042 44.7323C31.0938 44.7021 31.458 44.6423 31.8454 44.6212C32.3777 44.5924 32.9029 44.3962 32.9711 43.9793C33.0442 43.5321 32.8614 43.2037 32.5682 42.7586C31.6274 41.3292 28.9014 40.5368 27.8981 40.5719C27.6302 40.5811 27.3749 40.6254 27.1654 40.7709C26.9566 40.9165 26.7956 41.133 26.7182 41.3953C26.4517 42.3037 26.3899 43.0919 26.5312 43.8035V43.8042Z" fill="#060706"/>
<path d="M37.3142 23.827C36.7862 24.0141 36.5359 24.2116 36.4979 24.4254C36.4381 24.7671 36.7243 24.9717 37.1026 25.1686C40.5563 26.9686 42.3978 30.2459 42.9934 31.3406C43.0531 31.451 43.101 31.5389 43.1361 31.5987C44.1739 33.6848 46.566 34.9357 47.0356 35.1656C47.0947 35.1951 47.1566 35.2106 47.2192 35.2141C47.371 35.2219 47.5215 35.1537 47.6171 35.0271C48.6556 33.6441 49.5099 28.5893 46.386 25.4941C46.04 25.151 45.6357 24.8529 45.1745 24.6005C44.7132 24.348 44.1957 24.1413 43.6255 23.9824C41.353 23.3496 38.608 23.3693 37.3128 23.8284L37.3142 23.827Z" fill="#060706"/>
<path d="M28.1532 57.7759C27.4683 57.8701 26.8869 57.2506 26.8201 56.4245C26.7258 55.2453 26.4713 53.1324 26.6605 51.4147C26.7111 50.9542 27.0767 50.3544 27.874 50.7692C28.1398 50.9077 28.5139 51.0603 28.7804 51.1454C29.2501 51.2959 29.5348 51.2586 30.0917 51.144C30.65 51.0294 31.0726 51.5068 30.8419 52.6128C30.6605 53.4854 30.5312 54.8495 30.4053 56.3106C30.3512 56.9406 29.9511 57.4461 29.4322 57.5544C29.0096 57.643 28.5828 57.7168 28.1525 57.7759H28.1532Z" fill="#060706"/>
<path d="M32.6281 57.0045C32.2083 57.1135 31.8392 56.776 31.8068 56.3394C31.6289 53.9691 31.8462 51.8169 32.9241 48.837C33.1906 48.1009 34.4942 48.7752 34.7592 49.2245C35.1867 49.9494 35.1734 51.324 35.2451 51.9617C35.3316 52.7246 36.0867 53.7779 35.7232 54.68C35.4068 55.4647 33.9106 56.6713 32.6281 57.0052V57.0045Z" fill="#060706"/>
<path d="M42.2734 34.1804C42.265 33.7051 42.4112 33.5384 42.6278 33.4688C42.9055 33.3795 43.205 33.5328 43.4153 33.774C44.1993 34.674 45.164 35.4636 46.1146 36.0823C46.6658 36.4423 47.1925 36.7848 47.5862 37.1518C47.6804 37.2397 47.833 37.1848 47.8513 37.0562C47.9455 36.4184 48.1417 36.0057 48.366 35.581C48.4848 35.356 48.7126 35.1317 49.01 35.1472C49.2681 35.1605 49.4601 35.4116 49.5831 35.6366C49.9192 36.3024 50.3277 37.111 50.604 38.1538V38.1552C51.0772 41.663 50.076 42.3099 48.2683 43.7591C47.5574 44.3293 46.7523 44.7076 46.109 44.0607C43.43 41.3663 42.3198 36.8059 42.2727 34.1804H42.2734Z" fill="#060706"/>
<path d="M26.8152 23.1751C26.8799 23.4887 27.01 23.6118 27.1429 23.7165C27.2667 23.8136 27.4263 23.8459 27.5803 23.8396C27.6428 23.8368 27.7673 23.8241 27.8285 23.8051C29.0568 23.4262 29.999 23.5815 31.233 23.4796C31.6577 23.4444 31.7716 23.308 31.8904 23.0451C32.0085 22.7835 31.9558 22.4938 31.7842 22.2653C31.1936 21.4778 30.449 20.2368 30.6613 18.4586C30.8512 16.859 31.2752 16.2859 31.0431 15.9069C30.9531 15.7593 30.7056 15.6018 30.5158 15.497C30.0081 15.2172 29.3388 15.7572 28.912 16.224C27.2568 18.0325 26.2176 20.2691 26.8167 23.1751H26.8152Z" fill="#060706"/>
<path d="M36.0719 42.4535C36.3145 42.4767 36.2631 42.907 36.1429 43.3528C35.9791 43.9589 35.3884 45.2927 35.3659 46.0627C35.335 47.1187 34.9567 47.5652 34.5334 47.4408C33.6665 47.1855 33.3634 46.8621 33.5238 46.1688C33.8767 44.643 35.3849 42.3888 36.0719 42.4535Z" fill="#060706"/>
<path d="M39.117 40.5909C38.7486 40.9038 37.3543 41.9198 37.1061 41.6056C36.8944 41.3384 37.7684 40.5248 38.596 39.4322C39.3631 38.4197 39.9031 36.7898 39.9031 36.7898C40.0029 36.4875 40.3447 36.2203 40.6618 36.1964L40.7918 36.1866C41.1089 36.162 41.3304 36.3996 41.284 36.7146C41.284 36.7146 40.9409 39.0434 39.1163 40.5916L39.117 40.5909Z" fill="#060706"/>
<path d="M18.1683 23.1752C17.9398 23.4016 17.4174 23.6603 17.101 23.6547C17.0166 23.6533 16.928 23.6519 16.845 23.6224C15.7847 23.2427 15.455 22.7695 13.2218 22.5874C12.897 22.5606 12.6734 22.0663 13.3357 21.6494C15.0359 20.5785 18.0136 19.6202 19.5528 19.5154C19.5675 19.5147 19.5816 19.5154 19.5964 19.5175C19.711 19.5217 19.8129 19.5674 19.8917 19.6406C19.969 19.7137 20.0232 19.8142 20.0372 19.9274C20.1729 21.0131 19.1147 22.2393 18.1683 23.1766V23.1752Z" fill="#060706"/>
<path d="M25.4689 27.396C25.7607 29.8232 25.4457 31.5677 25.187 32.403C24.8889 33.3649 24.1007 33.9759 23.2028 34.3612C22.3197 34.7395 21.1047 35.3259 18.9369 35.373C15.8333 35.4398 11.63 34.4589 11.244 32.4817C11.0682 31.6422 11.1786 30.5573 11.8768 29.4604C14.2457 25.7409 17.634 24.9527 19.2442 24.8437C20.9254 24.7305 22.0651 24.8557 22.9651 24.9871C24.1787 25.1629 25.322 26.1796 25.4689 27.3967V27.396Z" fill="#060706"/>
<path d="M24.2664 39.1228C22.8166 39.1397 21.1818 39.5819 19.2686 41.1984C18.5943 41.7679 18.1619 41.7771 17.7632 41.5556C15.4436 40.2696 14.2124 39.0356 13.5198 36.8693C13.3244 36.2575 13.7554 36.0607 14.6308 36.2688C16.8224 36.7891 20.5483 37.1786 24.0667 35.6339C24.3536 35.5073 24.6756 35.5298 24.9498 35.6943C25.087 35.7766 25.2037 35.8905 25.2944 36.0241C25.3851 36.1584 25.4498 36.3138 25.48 36.4811C25.6108 37.1822 25.3752 37.5021 25.2747 38.1722C25.1938 38.7079 24.7832 39.1024 24.2931 39.1207H24.2671L24.2664 39.1228Z" fill="#060706"/>
<path d="M25.5139 48.7148C25.4366 49.2028 25.0963 49.6274 24.6554 49.6464C23.1592 49.7118 23.3631 50.436 22.0989 50.2659C21.0814 50.1288 20.5386 49.4278 20.2539 48.7851C19.9016 47.9899 19.7399 47.3641 19.6309 46.7524C19.5746 46.436 19.5599 45.6295 20.3073 45.6238C20.7362 45.621 21.1447 45.7075 21.5378 45.8313C22.6107 46.1702 23.3075 46.116 24.3784 45.9135C24.8551 45.8235 25.3178 46.2412 25.4429 46.7861C25.5906 47.4316 25.6152 48.0799 25.5132 48.7155L25.5139 48.7148Z" fill="#060706"/>
<path d="M25.4709 43.8042C25.3816 44.2556 25.0181 44.5593 24.5766 44.7014C23.0747 45.1858 22.3005 44.8104 21.2979 44.7323C20.9084 44.7021 20.5441 44.6423 20.1567 44.6212C19.6245 44.5924 19.0992 44.3962 19.031 43.9793C18.9579 43.5321 19.1407 43.2037 19.4339 42.7586C20.3747 41.3292 23.1007 40.5368 24.1041 40.5719C24.372 40.5811 24.6272 40.6254 24.8367 40.7709C25.0455 40.9165 25.2066 41.133 25.2839 41.3953C25.5504 42.3037 25.6123 43.0919 25.4709 43.8035V43.8042Z" fill="#060706"/>
<path d="M14.6878 23.827C15.2158 24.0141 15.4661 24.2116 15.5041 24.4254C15.5639 24.7671 15.2777 24.9717 14.8994 25.1686C11.4457 26.9686 9.60417 30.2459 9.00862 31.3406C8.94886 31.451 8.90105 31.5389 8.86589 31.5987C7.82808 33.6848 5.43605 34.9357 4.96636 35.1656C4.9073 35.1951 4.84542 35.2106 4.78284 35.2141C4.63097 35.2219 4.4805 35.1537 4.38488 35.0271C3.34636 33.6441 2.49206 28.5893 5.61605 25.4941C5.96198 25.151 6.36628 24.8529 6.82753 24.6005C7.28878 24.348 7.80628 24.1413 8.37651 23.9824C10.649 23.3496 13.394 23.3693 14.6892 23.8284L14.6878 23.827Z" fill="#060706"/>
<path d="M23.8495 57.7759C24.5343 57.8701 25.1158 57.2506 25.1826 56.4245C25.2768 55.2453 25.5313 53.1324 25.3422 51.4147C25.2916 50.9542 24.9259 50.3544 24.1286 50.7692C23.8628 50.9077 23.4887 51.0603 23.2223 51.1454C22.7526 51.2959 22.4678 51.2586 21.9109 51.144C21.3527 51.0294 20.9301 51.5068 21.1607 52.6128C21.3421 53.4854 21.4715 54.8495 21.5973 56.3106C21.6515 56.9406 22.0516 57.4461 22.5705 57.5544C22.993 57.643 23.4198 57.7168 23.8502 57.7759H23.8495Z" fill="#060706"/>
<path d="M19.3749 57.0045C19.7946 57.1135 20.1638 56.776 20.1961 56.3394C20.374 53.9691 20.1567 51.8169 19.0789 48.837C18.8124 48.1009 17.5088 48.7752 17.2437 49.2245C16.8162 49.9494 16.8296 51.324 16.7578 51.9617C16.6714 52.7246 15.9162 53.7779 16.2797 54.68C16.5961 55.4647 18.0924 56.6713 19.3749 57.0052V57.0045Z" fill="#060706"/>
<path d="M9.7287 34.1804C9.73714 33.7051 9.59089 33.5384 9.37432 33.4688C9.09659 33.3795 8.79706 33.5328 8.58682 33.774C7.80284 34.674 6.83815 35.4636 5.88753 36.0823C5.33628 36.4423 4.80964 36.7848 4.41589 37.1518C4.32167 37.2397 4.16909 37.1848 4.15081 37.0562C4.05659 36.4184 3.86042 36.0057 3.63612 35.581C3.51729 35.356 3.28948 35.1317 2.99206 35.1472C2.73401 35.1605 2.54206 35.4116 2.41901 35.6366C2.08292 36.3024 1.6744 37.111 1.39807 38.1538V38.1552C0.92487 41.663 1.92612 42.3099 3.73385 43.7591C4.44471 44.3293 5.24979 44.7076 5.89315 44.0607C8.57206 41.3663 9.68229 36.8059 9.7294 34.1804H9.7287Z" fill="#060706"/>
<path d="M25.1868 23.1751C25.1222 23.4887 24.9921 23.6118 24.8592 23.7165C24.7354 23.8136 24.5758 23.8459 24.4218 23.8396C24.3593 23.8368 24.2348 23.8241 24.1736 23.8051C22.9453 23.4262 22.0031 23.5815 20.7691 23.4796C20.3444 23.4444 20.2305 23.308 20.1117 23.0451C19.9936 22.7835 20.0463 22.4938 20.2179 22.2653C20.8085 21.4778 21.5531 20.2368 21.3407 18.4586C21.1509 16.859 20.7269 16.2859 20.959 15.9069C21.049 15.7593 21.2965 15.6018 21.4863 15.497C21.994 15.2172 22.6633 15.7572 23.0901 16.224C24.7453 18.0325 25.7845 20.2691 25.1854 23.1751H25.1868Z" fill="#060706"/>
<path d="M15.9309 42.4535C15.6884 42.4767 15.7397 42.907 15.8599 43.3528C16.0238 43.9589 16.6144 45.2927 16.6369 46.0627C16.6678 47.1187 17.0461 47.5652 17.4694 47.4408C18.3363 47.1855 18.6394 46.8621 18.4791 46.1688C18.1261 44.643 16.6179 42.3888 15.9309 42.4535Z" fill="#060706"/>
<path d="M12.8858 40.5909C13.2543 40.9038 14.6486 41.9198 14.8968 41.6056C15.1084 41.3384 14.2344 40.5248 13.4068 39.4322C12.6397 38.4197 12.0997 36.7898 12.0997 36.7898C11.9999 36.4875 11.6582 36.2203 11.3411 36.1964L11.211 36.1866C10.8939 36.162 10.6724 36.3996 10.7188 36.7146C10.7188 36.7146 11.0619 39.0434 12.8865 40.5916L12.8858 40.5909Z" fill="#060706"/>
<path d="M28.1246 15.3204C27.4939 16.0404 27.0973 16.3097 26.6171 17.4411C26.5834 17.5205 26.563 17.607 26.5292 17.6871C26.5004 17.7546 26.468 17.8214 26.4294 17.884C26.3443 18.0218 26.2437 18.1259 26.0771 18.1463C25.9927 18.1568 25.8809 18.1575 25.8015 18.121C25.7298 18.0879 25.6686 18.0183 25.6222 17.9557C25.509 17.8046 25.4401 17.6211 25.3852 17.4418C24.905 16.3104 24.5084 16.0418 23.8777 15.3211C23.5016 14.8929 23.8665 14.5716 24.3263 14.4331C24.9254 14.2594 25.3677 14.2193 25.9836 14.2158H26.018C26.6312 14.2186 27.077 14.2594 27.6753 14.4331C28.1352 14.5716 28.5001 14.8929 28.1239 15.3211L28.1246 15.3204Z" fill="#060706"/>
<path d="M68.3114 49.0156H64.1514V27.5756H77.7194C81.9434 27.5756 84.4394 29.6556 84.4394 33.2076C84.4394 36.0556 82.7114 37.5596 80.5994 38.0396V38.4236C82.3274 38.9676 82.7434 39.7676 83.1914 41.9436L84.6954 49.0156H80.4714L79.2874 42.7116C78.8714 40.5356 78.1674 39.8316 75.5434 39.8316H68.3114V49.0156ZM68.3114 31.1596V36.2796H77.2394C79.2554 36.2796 80.2154 35.5436 80.2154 33.7196C80.2154 31.8956 79.3514 31.1596 77.4314 31.1596H68.3114ZM104.503 49.0156H86.8389V27.5756H104.375V31.1596H90.9989V36.1836H104.055V39.7676H90.9989V45.4316H104.503V49.0156ZM122.354 49.0156H107.058V27.5756H111.218V45.4316H122.354V49.0156ZM128.499 49.0156H124.339V27.5756H128.499V49.0156ZM149.034 49.0156H131.37V27.5756H148.906V31.1596H135.53V36.1836H148.586V39.7676H135.53V45.4316H149.034V49.0156ZM155.749 49.0156H151.589V27.5756H169.125V31.1596H155.749V36.2476H168.837V39.8316H155.749V49.0156Z" fill="white"/>
</g>
<defs>
<filter id="filter0_d_145_148" x="-4.16455" y="0" width="195.165" height="80" filterUnits="userSpaceOnUse" color-interpolation-filters="sRGB">
<feFlood flood-opacity="0" result="BackgroundImageFix"/>
<feColorMatrix in="SourceAlpha" type="matrix" values="0 0 0 0 0 0 0 0 0 0 0 0 0 0 0 0 0 0 127 0" result="hardAlpha"/>
<feOffset dy="4"/>
<feGaussianBlur stdDeviation="2"/>
<feComposite in2="hardAlpha" operator="out"/>
<feColorMatrix type="matrix" values="0 0 0 0 0 0 0 0 0 0 0 0 0 0 0 0 0 0 0.25 0"/>
<feBlend mode="normal" in2="BackgroundImageFix" result="effect1_dropShadow_145_148"/>
<feBlend mode="normal" in="SourceGraphic" in2="effect1_dropShadow_145_148" result="shape"/>
</filter>
</defs>
</svg>
