<svg width="136" height="24" viewBox="0 0 136 24" fill="none" xmlns="http://www.w3.org/2000/svg">
<g clip-path="url(#clip0_0_992)">
<path d="M11.446 1.93196C11.651 1.43919 12.349 1.43919 12.554 1.93196L15.0333 7.89294C15.1197 8.10068 15.3151 8.24262 15.5393 8.2606L21.9747 8.77652C22.5067 8.81917 22.7224 9.48308 22.3171 9.83028L17.414 14.0303C17.2432 14.1767 17.1685 14.4063 17.2207 14.6252L18.7187 20.905C18.8425 21.4241 18.2778 21.8345 17.8223 21.5563L12.3128 18.191C12.1207 18.0738 11.8793 18.0738 11.6872 18.191L6.17767 21.5563C5.72221 21.8345 5.15746 21.4241 5.28129 20.905L6.77926 14.6252C6.83147 14.4063 6.75684 14.1767 6.58597 14.0303L1.68289 9.83028C1.27757 9.48308 1.49329 8.81917 2.02528 8.77652L8.46065 8.2606C8.68493 8.24262 8.88029 8.10068 8.9667 7.89294L11.446 1.93196Z" fill="#F2F4F7"/>
<g clip-path="url(#clip1_0_992)">
<path d="M11.446 1.93196C11.651 1.43919 12.349 1.43919 12.554 1.93196L15.0333 7.89294C15.1197 8.10068 15.3151 8.24262 15.5393 8.2606L21.9747 8.77652C22.5067 8.81917 22.7224 9.48308 22.3171 9.83028L17.414 14.0303C17.2432 14.1767 17.1685 14.4063 17.2207 14.6252L18.7187 20.905C18.8425 21.4241 18.2778 21.8345 17.8223 21.5563L12.3128 18.191C12.1207 18.0738 11.8793 18.0738 11.6872 18.191L6.17767 21.5563C5.72221 21.8345 5.15746 21.4241 5.28129 20.905L6.77926 14.6252C6.83147 14.4063 6.75684 14.1767 6.58597 14.0303L1.68289 9.83028C1.27757 9.48308 1.49329 8.81917 2.02528 8.77652L8.46065 8.2606C8.68493 8.24262 8.88029 8.10068 8.9667 7.89294L11.446 1.93196Z" fill="#FDB022"/>
</g>
</g>
<g clip-path="url(#clip2_0_992)">
<path d="M39.446 1.93196C39.651 1.43919 40.349 1.43919 40.554 1.93196L43.0333 7.89294C43.1197 8.10068 43.3151 8.24262 43.5393 8.2606L49.9747 8.77652C50.5067 8.81917 50.7224 9.48308 50.3171 9.83028L45.414 14.0303C45.2432 14.1767 45.1685 14.4063 45.2207 14.6252L46.7187 20.905C46.8425 21.4241 46.2778 21.8345 45.8223 21.5563L40.3128 18.191C40.1207 18.0738 39.8793 18.0738 39.6872 18.191L34.1777 21.5563C33.7222 21.8345 33.1575 21.4241 33.2813 20.905L34.7793 14.6252C34.8315 14.4063 34.7568 14.1767 34.586 14.0303L29.6829 9.83028C29.2776 9.48308 29.4933 8.81917 30.0253 8.77652L36.4607 8.2606C36.6849 8.24262 36.8803 8.10068 36.9667 7.89294L39.446 1.93196Z" fill="#F2F4F7"/>
<g clip-path="url(#clip3_0_992)">
<path d="M39.446 1.93196C39.651 1.43919 40.349 1.43919 40.554 1.93196L43.0333 7.89294C43.1197 8.10068 43.3151 8.24262 43.5393 8.2606L49.9747 8.77652C50.5067 8.81917 50.7224 9.48308 50.3171 9.83028L45.414 14.0303C45.2432 14.1767 45.1685 14.4063 45.2207 14.6252L46.7187 20.905C46.8425 21.4241 46.2778 21.8345 45.8223 21.5563L40.3128 18.191C40.1207 18.0738 39.8793 18.0738 39.6872 18.191L34.1777 21.5563C33.7222 21.8345 33.1575 21.4241 33.2813 20.905L34.7793 14.6252C34.8315 14.4063 34.7568 14.1767 34.586 14.0303L29.6829 9.83028C29.2776 9.48308 29.4933 8.81917 30.0253 8.77652L36.4607 8.2606C36.6849 8.24262 36.8803 8.10068 36.9667 7.89294L39.446 1.93196Z" fill="#FDB022"/>
</g>
</g>
<g clip-path="url(#clip4_0_992)">
<path d="M67.446 1.93196C67.651 1.43919 68.349 1.43919 68.554 1.93196L71.0333 7.89294C71.1197 8.10068 71.3151 8.24262 71.5393 8.2606L77.9747 8.77652C78.5067 8.81917 78.7224 9.48308 78.3171 9.83028L73.414 14.0303C73.2432 14.1767 73.1685 14.4063 73.2207 14.6252L74.7187 20.905C74.8425 21.4241 74.2778 21.8345 73.8223 21.5563L68.3128 18.191C68.1207 18.0738 67.8793 18.0738 67.6872 18.191L62.1777 21.5563C61.7222 21.8345 61.1575 21.4241 61.2813 20.905L62.7793 14.6252C62.8315 14.4063 62.7568 14.1767 62.586 14.0303L57.6829 9.83028C57.2776 9.48308 57.4933 8.81917 58.0253 8.77652L64.4607 8.2606C64.6849 8.24262 64.8803 8.10068 64.9667 7.89294L67.446 1.93196Z" fill="#F2F4F7"/>
<g clip-path="url(#clip5_0_992)">
<path d="M67.446 1.93196C67.651 1.43919 68.349 1.43919 68.554 1.93196L71.0333 7.89294C71.1197 8.10068 71.3151 8.24262 71.5393 8.2606L77.9747 8.77652C78.5067 8.81917 78.7224 9.48308 78.3171 9.83028L73.414 14.0303C73.2432 14.1767 73.1685 14.4063 73.2207 14.6252L74.7187 20.905C74.8425 21.4241 74.2778 21.8345 73.8223 21.5563L68.3128 18.191C68.1207 18.0738 67.8793 18.0738 67.6872 18.191L62.1777 21.5563C61.7222 21.8345 61.1575 21.4241 61.2813 20.905L62.7793 14.6252C62.8315 14.4063 62.7568 14.1767 62.586 14.0303L57.6829 9.83028C57.2776 9.48308 57.4933 8.81917 58.0253 8.77652L64.4607 8.2606C64.6849 8.24262 64.8803 8.10068 64.9667 7.89294L67.446 1.93196Z" fill="#FDB022"/>
</g>
</g>
<g clip-path="url(#clip6_0_992)">
<path d="M95.446 1.93196C95.651 1.43919 96.349 1.43919 96.554 1.93196L99.0333 7.89294C99.1197 8.10068 99.3151 8.24262 99.5393 8.2606L105.975 8.77652C106.507 8.81917 106.722 9.48308 106.317 9.83028L101.414 14.0303C101.243 14.1767 101.169 14.4063 101.221 14.6252L102.719 20.905C102.843 21.4241 102.278 21.8345 101.822 21.5563L96.3128 18.191C96.1207 18.0738 95.8793 18.0738 95.6872 18.191L90.1777 21.5563C89.7222 21.8345 89.1575 21.4241 89.2813 20.905L90.7793 14.6252C90.8315 14.4063 90.7568 14.1767 90.586 14.0303L85.6829 9.83028C85.2776 9.48308 85.4933 8.81917 86.0253 8.77652L92.4607 8.2606C92.6849 8.24262 92.8803 8.10068 92.9667 7.89294L95.446 1.93196Z" fill="#F2F4F7"/>
<g clip-path="url(#clip7_0_992)">
<path d="M95.446 1.93196C95.651 1.43919 96.349 1.43919 96.554 1.93196L99.0333 7.89294C99.1197 8.10068 99.3151 8.24262 99.5393 8.2606L105.975 8.77652C106.507 8.81917 106.722 9.48308 106.317 9.83028L101.414 14.0303C101.243 14.1767 101.169 14.4063 101.221 14.6252L102.719 20.905C102.843 21.4241 102.278 21.8345 101.822 21.5563L96.3128 18.191C96.1207 18.0738 95.8793 18.0738 95.6872 18.191L90.1777 21.5563C89.7222 21.8345 89.1575 21.4241 89.2813 20.905L90.7793 14.6252C90.8315 14.4063 90.7568 14.1767 90.586 14.0303L85.6829 9.83028C85.2776 9.48308 85.4933 8.81917 86.0253 8.77652L92.4607 8.2606C92.6849 8.24262 92.8803 8.10068 92.9667 7.89294L95.446 1.93196Z" fill="#FDB022"/>
</g>
</g>
<g clip-path="url(#clip8_0_992)">
<path d="M123.446 1.93196C123.651 1.43919 124.349 1.43919 124.554 1.93196L127.033 7.89294C127.12 8.10068 127.315 8.24262 127.539 8.2606L133.975 8.77652C134.507 8.81917 134.722 9.48308 134.317 9.83028L129.414 14.0303C129.243 14.1767 129.169 14.4063 129.221 14.6252L130.719 20.905C130.843 21.4241 130.278 21.8345 129.822 21.5563L124.313 18.191C124.121 18.0738 123.879 18.0738 123.687 18.191L118.178 21.5563C117.722 21.8345 117.157 21.4241 117.281 20.905L118.779 14.6252C118.831 14.4063 118.757 14.1767 118.586 14.0303L113.683 9.83028C113.278 9.48308 113.493 8.81917 114.025 8.77652L120.461 8.2606C120.685 8.24262 120.88 8.10068 120.967 7.89294L123.446 1.93196Z" fill="#F2F4F7"/>
<g clip-path="url(#clip9_0_992)">
<path d="M123.446 1.93196C123.651 1.43919 124.349 1.43919 124.554 1.93196L127.033 7.89294C127.12 8.10068 127.315 8.24262 127.539 8.2606L133.975 8.77652C134.507 8.81917 134.722 9.48308 134.317 9.83028L129.414 14.0303C129.243 14.1767 129.169 14.4063 129.221 14.6252L130.719 20.905C130.843 21.4241 130.278 21.8345 129.822 21.5563L124.313 18.191C124.121 18.0738 123.879 18.0738 123.687 18.191L118.178 21.5563C117.722 21.8345 117.157 21.4241 117.281 20.905L118.779 14.6252C118.831 14.4063 118.757 14.1767 118.586 14.0303L113.683 9.83028C113.278 9.48308 113.493 8.81917 114.025 8.77652L120.461 8.2606C120.685 8.24262 120.88 8.10068 120.967 7.89294L123.446 1.93196Z" fill="#FDB022"/>
</g>
</g>
<defs>
<clipPath id="clip0_0_992">
<rect width="24" height="24" fill="white"/>
</clipPath>
<clipPath id="clip1_0_992">
<rect width="24" height="24" fill="white"/>
</clipPath>
<clipPath id="clip2_0_992">
<rect width="24" height="24" fill="white" transform="translate(28)"/>
</clipPath>
<clipPath id="clip3_0_992">
<rect width="24" height="24" fill="white" transform="translate(28)"/>
</clipPath>
<clipPath id="clip4_0_992">
<rect width="24" height="24" fill="white" transform="translate(56)"/>
</clipPath>
<clipPath id="clip5_0_992">
<rect width="24" height="24" fill="white" transform="translate(56)"/>
</clipPath>
<clipPath id="clip6_0_992">
<rect width="24" height="24" fill="white" transform="translate(84)"/>
</clipPath>
<clipPath id="clip7_0_992">
<rect width="24" height="24" fill="white" transform="translate(84)"/>
</clipPath>
<clipPath id="clip8_0_992">
<rect width="24" height="24" fill="white" transform="translate(112)"/>
</clipPath>
<clipPath id="clip9_0_992">
<rect width="24" height="24" fill="white" transform="translate(112)"/>
</clipPath>
</defs>
</svg>
