<svg width="24" height="24" viewBox="0 0 24 24" fill="none" xmlns="http://www.w3.org/2000/svg">
<g id="twitter">
<path id="Vector" d="M20.9121 6.71248C20.2869 7.00538 19.6066 7.21618 18.9059 7.29828C19.6334 6.82883 20.1782 6.08718 20.4381 5.21248C19.7554 5.65358 19.0075 5.96288 18.2276 6.12668C17.9016 5.74819 17.5074 5.44666 17.0694 5.2409C16.6314 5.03513 16.1591 4.92953 15.682 4.93067C13.7513 4.93067 12.1986 6.63038 12.1986 8.71617C12.1986 9.00907 12.2313 9.30197 12.2844 9.58378C9.39354 9.41958 6.81525 7.91958 5.10115 5.62298C4.78882 6.20238 4.62515 6.86209 4.62717 7.53348C4.62717 8.84709 5.24212 10.0054 6.17987 10.6866C5.62724 10.6629 5.08755 10.498 4.60469 10.2051V10.2517C4.60469 12.0912 5.80191 13.6156 7.39751 13.9662C7.09792 14.0507 6.78972 14.0939 6.48019 14.0949C6.25341 14.0949 6.0389 14.0705 5.82234 14.0372C6.26363 15.5372 7.54869 16.6267 9.07892 16.6622C7.8817 17.6807 6.38213 18.2798 4.75384 18.2798C4.46168 18.2798 4.192 18.2687 3.91211 18.2332C5.45664 19.3094 7.28923 19.9307 9.26279 19.9307C15.6697 19.9307 19.1755 14.1659 19.1755 9.16218C19.1755 8.99798 19.1755 8.83378 19.1653 8.66958C19.8436 8.13038 20.4381 7.46248 20.9121 6.71248Z" fill="white"/>
</g>
</svg>
